<?xml version="1.0" standalone="no"?>
<!DOCTYPE svg PUBLIC "-//W3C//DTD SVG 20010904//EN"
 "http://www.w3.org/TR/2001/REC-SVG-20010904/DTD/svg10.dtd">
<svg version="1.0" xmlns="http://www.w3.org/2000/svg"
 width="256.000000pt" height="256.000000pt" viewBox="0 0 256.000000 256.000000"
 preserveAspectRatio="xMidYMid meet">
<metadata>
Created by potrace 1.12, written by Peter Selinger 2001-2015
</metadata>
<g transform="translate(0.000000,256.000000) scale(0.100000,-0.100000)"
fill="#000000" stroke="none">
<path d="M1235 2324 c-374 -40 -675 -231 -864 -550 -67 -115 -151 -379 -126
-401 4 -5 10 -2 12 5 3 7 16 25 29 39 13 14 26 34 29 44 8 23 55 49 90 49 14
0 25 5 25 10 0 6 9 10 19 10 11 0 22 4 26 9 3 6 18 9 33 7 15 -1 48 6 73 15
31 11 46 12 48 5 2 -15 3 -66 2 -91 -3 -37 15 -120 32 -150 21 -39 22 -23 1
32 -16 42 -13 80 6 68 5 -3 10 -17 10 -29 0 -14 10 -30 26 -41 14 -9 33 -33
41 -53 8 -20 24 -50 35 -65 11 -16 18 -31 15 -33 -3 -3 -13 5 -22 19 -16 25
-55 43 -55 26 0 -5 5 -9 11 -9 6 0 27 -17 46 -37 31 -34 39 -50 47 -94 1 -8
10 -30 18 -49 47 -103 76 -192 81 -245 5 -54 -1 -99 -13 -95 -3 1 -18 -3 -33
-9 -16 -6 -32 -11 -37 -11 -5 0 -10 -5 -12 -10 -3 -11 -53 -13 -98 -6 -14 2
-51 5 -83 5 -37 1 -56 5 -52 11 4 6 11 8 16 5 16 -11 10 12 -8 26 -11 10 -14
10 -9 2 4 -7 3 -13 -3 -13 -13 0 -32 35 -24 44 3 3 -3 6 -15 6 -12 0 -22 -5
-22 -12 0 -9 -3 -9 -12 0 -7 7 -23 12 -36 12 -17 0 -22 4 -18 15 3 8 9 22 12
30 4 11 2 13 -9 9 -9 -3 -18 -12 -21 -20 -7 -18 -26 -18 -26 -1 0 10 -78 58
-100 62 -3 0 -11 4 -18 8 -17 11 -16 4 14 -71 51 -126 135 -251 233 -347 l52
-50 52 29 c28 16 54 32 57 36 8 9 67 50 74 50 3 0 3 -13 0 -28 -4 -21 6 -50
38 -112 54 -104 98 -174 105 -167 3 3 -8 25 -25 49 -39 58 -102 178 -102 195
0 9 7 13 18 11 9 -2 16 -11 16 -21 -1 -13 2 -14 17 -6 11 5 24 7 29 4 6 -3 10
-1 10 4 0 12 39 -6 53 -24 4 -6 7 -1 5 11 -2 11 3 28 10 37 8 9 14 41 14 72 1
38 6 59 15 62 10 4 11 9 2 19 -9 11 -8 14 1 14 10 0 10 3 0 15 -10 12 -10 15
0 15 8 0 9 4 3 13 -5 6 -8 23 -7 37 1 14 -2 30 -8 37 -6 8 0 10 22 9 16 -1 36
-9 42 -17 7 -9 26 -24 42 -35 66 -44 85 -53 91 -43 4 5 12 6 18 2 21 -14 76
-31 81 -25 3 3 -14 17 -37 32 -23 15 -53 40 -67 56 l-25 29 24 -20 25 -20 -20
26 c-10 15 -22 25 -26 22 -5 -2 -8 7 -8 21 0 14 -4 26 -9 26 -9 0 -52 41 -76
72 -39 50 -65 78 -66 71 -1 -12 -18 30 -18 47 0 8 15 -3 34 -25 36 -42 46 -42
19 0 -23 35 -35 93 -20 99 6 2 -9 3 -34 1 -26 -2 -44 -8 -43 -14 2 -6 1 -11
-2 -11 -5 0 -47 89 -50 105 -4 29 -18 65 -25 65 -5 0 -7 12 -6 27 2 15 -1 43
-5 62 -15 66 -13 175 5 209 9 18 22 31 29 29 6 -1 11 4 9 11 -1 8 2 11 8 7 21
-13 81 7 90 30 7 18 14 22 31 18 17 -5 20 -3 14 7 -6 10 -4 12 11 6 10 -5 35
-9 54 -11 30 -2 100 -29 100 -39 0 -2 -42 -3 -92 -2 -114 1 -144 -12 -169 -71
l-18 -43 29 -15 c35 -18 40 -19 40 -2 0 8 19 12 58 13 71 1 132 13 132 26 0 5
-9 6 -20 3 -16 -5 -20 -2 -20 14 0 26 14 27 40 1 11 -11 27 -20 36 -20 8 0 12
-4 9 -10 -3 -5 -19 -10 -34 -10 -15 0 -46 -9 -69 -20 -22 -11 -51 -20 -64 -21
-13 0 -17 -3 -10 -6 8 -3 34 1 59 7 36 11 46 11 53 1 6 -10 14 -9 35 5 26 17
28 17 41 0 12 -17 14 -17 28 -3 44 44 47 113 6 152 -17 16 -30 39 -30 53 0 17
-4 22 -14 19 -8 -3 -16 -1 -18 5 -4 12 -18 16 -81 23 -61 6 -101 16 -116 29
-8 6 -17 9 -20 7 -3 -2 -18 -12 -33 -23 -45 -31 -51 -17 -34 85 7 42 11 47 28
41 15 -4 18 -3 13 6 -6 9 -1 10 16 5 21 -7 22 -6 10 9 -11 14 -11 16 2 16 9 0
18 9 22 19 5 16 18 27 45 36 3 1 18 7 33 13 30 13 55 17 177 33 41 5 91 11
110 14 65 8 75 8 103 0 15 -4 32 -16 38 -26 5 -10 13 -18 17 -18 27 4 34 -3
29 -28 -6 -31 8 -55 37 -66 10 -4 16 -13 13 -21 -3 -8 -1 -17 6 -19 16 -7 -25
-37 -85 -62 -52 -23 -98 -61 -98 -82 0 -7 -4 -13 -8 -13 -4 0 -13 -19 -19 -42
-10 -37 -8 -52 19 -132 39 -117 67 -173 78 -156 6 9 12 5 24 -16 8 -16 15 -22
16 -15 0 8 -12 32 -27 54 -21 30 -24 40 -14 47 8 4 11 12 8 17 -3 5 -8 21 -11
36 l-5 27 35 -15 c50 -21 41 -1 -16 34 -53 33 -64 47 -27 35 12 -4 39 -6 59
-6 20 1 40 -3 43 -8 4 -6 -7 -10 -26 -10 -35 0 -35 -8 0 -15 26 -5 53 4 46 15
-2 4 18 6 45 4 28 -2 61 1 75 6 16 6 25 6 26 0 3 -19 5 -25 17 -47 7 -13 10
-23 6 -23 -3 0 2 -12 11 -27 12 -17 14 -28 7 -31 -7 -2 -7 -13 2 -34 15 -35 7
-81 -21 -133 -19 -34 -43 -61 -43 -48 -1 26 -20 -28 -20 -57 -1 -19 -12 -66
-27 -105 -14 -38 -37 -104 -52 -145 -62 -170 -80 -186 -230 -194 -51 -2 -95
-6 -98 -9 -7 -8 104 -20 127 -14 10 3 20 1 22 -5 2 -6 14 -5 32 2 24 9 27 8
17 -3 -9 -11 -7 -14 8 -13 24 1 81 51 81 71 0 8 5 15 11 15 6 0 8 -7 5 -16 -3
-8 -2 -13 3 -10 11 7 24 -21 26 -59 1 -16 4 -46 5 -65 2 -19 1 -40 -2 -46 -11
-17 29 -74 52 -74 33 0 35 1 32 15 -3 17 34 39 54 31 9 -3 12 -1 9 4 -8 13 48
-11 57 -25 4 -5 10 -6 14 -2 4 4 -1 16 -11 27 -30 34 -11 32 61 -4 38 -19 86
-41 106 -49 l37 -16 68 72 c125 132 214 292 265 479 20 73 23 106 23 268 0
169 -3 193 -27 280 -114 410 -444 718 -852 795 -80 15 -231 25 -291 19z m699
-847 c14 -13 22 -28 18 -32 -4 -5 1 -6 10 -2 10 3 19 -1 23 -11 5 -14 7 -14
16 -2 9 12 10 11 5 -4 -4 -10 -1 -25 5 -32 7 -8 9 -29 6 -48 -3 -22 0 -42 10
-55 8 -12 12 -28 9 -36 -3 -8 -1 -15 4 -15 6 0 10 8 11 18 0 9 5 4 10 -13 5
-16 7 -35 4 -42 -2 -7 0 -15 4 -18 10 -5 6 -129 -4 -145 -3 -5 -1 -18 4 -29 8
-14 7 -21 -2 -25 -9 -4 -9 -7 0 -12 8 -4 8 -12 -3 -32 -8 -15 -14 -33 -14 -40
0 -27 -31 -72 -50 -72 -15 0 -20 -10 -25 -43 -5 -32 -14 -48 -36 -62 -16 -11
-29 -26 -29 -32 0 -7 -11 -13 -25 -13 -14 0 -25 -5 -25 -11 0 -7 -9 -9 -22 -5
-13 4 -36 9 -53 12 -73 12 -92 24 -98 57 -9 60 7 119 47 172 22 28 47 69 57
91 16 40 42 163 54 266 6 49 21 71 30 44 3 -9 7 -24 10 -33 12 -37 26 7 30 98
2 52 1 89 -3 82 -6 -9 -11 -6 -21 8 -7 12 -8 18 -2 14 6 -3 11 1 11 9 0 21 4
20 34 -7z"/>
<path d="M1620 1180 c0 -5 5 -10 10 -10 6 0 10 -7 10 -16 0 -11 -6 -14 -21 -9
-16 6 -20 4 -14 -6 6 -11 5 -12 -6 -1 -7 6 -22 12 -33 12 -18 -1 -17 -4 12
-28 l33 -27 -88 -1 c-49 0 -98 -6 -111 -13 -13 -7 -75 -13 -155 -15 -73 -2
-141 -7 -151 -13 -16 -9 -11 -15 39 -48 44 -30 59 -35 65 -25 6 9 13 11 22 4
7 -5 27 -11 43 -12 l30 -2 -25 12 c-14 6 -29 12 -35 13 -25 3 -65 26 -65 36 0
9 3 9 14 0 11 -9 15 -8 20 5 4 10 13 14 26 11 11 -3 23 -1 26 4 3 5 13 5 24
-1 13 -7 21 -7 26 1 4 7 20 9 40 6 19 -3 37 -1 40 5 4 6 21 8 40 5 19 -3 36
-1 40 4 4 6 11 6 19 -1 8 -6 16 -7 19 -2 7 12 56 13 56 1 0 -14 -41 -47 -84
-68 -40 -20 -40 -20 -8 -14 25 4 36 1 46 -12 12 -17 15 -15 42 20 16 21 40 49
52 63 19 19 21 27 11 33 -15 9 -13 11 16 27 15 8 22 6 32 -6 11 -15 12 -15 13
6 0 13 -11 34 -25 47 -25 26 -45 32 -45 15z"/>
</g>
</svg>
